<svg viewBox="0 0 45 45" x="0" y="0" fill="none" xmlns="http://www.w3.org/2000/svg"><g id="Group 9" xmlns="http://www.w3.org/2000/svg">
<rect id="Rectangle 34624289" x="0.0003000000000383807" y="0" width="45" height="45" rx="4" fill="#EA580C"/>
<g id="Group 8">
<g id="Iconsax/Linear/huobitoken">
<path id="Vector_19" d="M27.2003,21c0,0 -0.2,1 -3.2,5c-2.9,3.8 1.3,6.6 1.8,7h0.1c0.6,-0.5 8.2,-5.3 1.3,-12z" stroke="white" stroke-width="1.5" stroke-miterlimit="10" stroke-linecap="round" stroke-linejoin="round"/>
<path id="Vector_20" d="M24.8003,18.8c0,-2.3 -0.9,-4.4 -1.8,-5.6c-0.3,-0.3 -0.8,-0.2 -0.9,0.2c-0.4,1.5 -1.6,4.7 -4.5,8.5c-3.7,4.8 -0.3,10 3.2,11c1.9,0.5 -0.5,-1 -0.8,-4.1c-0.3,-3.9 4.8,-6.8 4.8,-10z" stroke="white" stroke-width="1.5" stroke-miterlimit="10" stroke-linecap="round" stroke-linejoin="round"/>
</g>
</g>
</g></svg>