<svg viewBox="0 0 45 45" x="0" y="0" fill="none" xmlns="http://www.w3.org/2000/svg"><g id="Group 10" xmlns="http://www.w3.org/2000/svg">
<rect id="Rectangle 34624289_2" x="0" y="0" width="45" height="45" rx="4" fill="currentColor"/>
<g id="Frame">
<path id="Vector_21" d="M15,29h5.5v1.25c0,1.519 -1.231,2.75 -2.75,2.75c-1.519,0 -2.75,-1.231 -2.75,-2.75zM19.058,25l0.045,-0.133c0.767,-2.105 0.897,-2.496 0.897,-2.867c0,-0.75 -0.203,-1.643 -0.528,-2.273c-0.242,-0.47 -0.412,-0.607 -0.472,-0.607c-1.279,0 -2.5,1.364 -2.5,2.88c0,0.959 0.075,1.773 0.227,2.758c0.006,0.04 0.02,0.129 0.038,0.242zM19,17.12c2,0 3,2.88 3,4.88c0,1 -0.5,2 -1,3.5l-0.5,1.5h-5.5c0,-1 -0.5,-2.5 -0.5,-5c0,-2.5 1.998,-4.88 4.5,-4.88zM31.054,25.098l-0.217,1.231c-0.264,1.496 -1.69,2.495 -3.186,2.231c-1.496,-0.264 -2.494,-1.69 -2.231,-3.186l0.217,-1.231zM30.004,20.851c0.165,-0.499 0.301,-0.894 0.303,-0.899c0.202,-0.658 0.361,-1.303 0.485,-2.008c0.264,-1.493 -0.702,-3.048 -1.962,-3.27c-0.059,-0.01 -0.25,0.095 -0.57,0.515c-0.43,0.565 -0.784,1.409 -0.914,2.147c-0.059,0.33 -0.05,0.404 0.27,2.263c0.044,0.255 0.081,0.486 0.115,0.717l0.021,0.138zM29.178,12.705c2.464,0.434 4.018,3.124 3.584,5.586c-0.434,2.462 -1.187,3.853 -1.361,4.838l-5.416,-0.955l-0.232,-1.565c-0.232,-1.564 -0.551,-2.635 -0.377,-3.62c0.347,-1.97 1.832,-4.632 3.802,-4.284z" fill="white"/>
</g>
</g></svg>