<svg viewBox="0 0 45 45" x="0" y="0" fill="none" xmlns="http://www.w3.org/2000/svg"><g id="Group 12" xmlns="http://www.w3.org/2000/svg">
<rect id="Rectangle 34624288" x="0" y="0" width="45" height="45" rx="4" fill="#0891B2"/>
<g id="Group 11">
<g id="Iconsax/Linear/weight">
<path id="Vector_18" d="M20.093,23h5.814M37,26.333v-6.666M9,26.333v-6.666M29.907,31c3.2,0 4,-1.8 4,-4v-8c0,-2.2 -0.8,-4 -4,-4c-3.2,0 -4,1.8 -4,4v8c0,2.2 0.8,4 4,4zM16.093,31c-3.2,0 -4,-1.8 -4,-4v-8c0,-2.2 0.8,-4 4,-4c3.2,0 4,1.8 4,4v8c0,2.2 -0.8,4 -4,4z" stroke="white" stroke-width="1.5" stroke-linecap="round" stroke-linejoin="round"/>
</g>
</g>
</g></svg>